<svg xmlns="http://www.w3.org/2000/svg" xmlns:xlink="http://www.w3.org/1999/xlink" width="266" zoomAndPan="magnify" viewBox="0 0 199.5 141.749996" height="189" preserveAspectRatio="xMidYMid meet" version="1.0"><path fill="#0668b2" d="M 112.675781 55.484375 L 114.574219 55.484375 L 114.574219 61.226562 L 121.75 61.226562 L 121.75 55.484375 L 123.652344 55.484375 L 123.652344 69.4375 L 121.75 69.4375 L 121.75 62.917969 L 114.574219 62.917969 L 114.574219 69.4375 L 112.675781 69.4375 Z M 112.675781 55.484375 " fill-opacity="1" fill-rule="nonzero"/><path fill="#0668b2" d="M 128.015625 55.484375 L 138.109375 55.484375 L 138.109375 57.175781 L 129.84375 57.175781 L 129.84375 61.4375 L 137.476562 61.4375 L 137.476562 63.023438 L 129.84375 63.023438 L 129.84375 67.78125 L 138.25 67.78125 L 138.25 69.4375 L 128.015625 69.4375 Z M 128.015625 55.484375 " fill-opacity="1" fill-rule="nonzero"/><path fill="#0668b2" d="M 145.992188 55.484375 L 148.101562 55.484375 L 153.167969 69.4375 L 151.09375 69.4375 L 149.652344 65.242188 L 144.199219 65.242188 L 142.683594 69.4375 L 140.75 69.4375 Z M 149.125 63.730469 L 146.976562 57.5625 L 144.761719 63.730469 Z M 149.125 63.730469 " fill-opacity="1" fill-rule="nonzero"/><path fill="#0668b2" d="M 156.054688 55.484375 L 157.953125 55.484375 L 157.953125 67.78125 L 164.917969 67.78125 L 164.917969 69.4375 L 156.054688 69.4375 Z M 156.054688 55.484375 " fill-opacity="1" fill-rule="nonzero"/><path fill="#0668b2" d="M 176.707031 55.484375 L 176.707031 57.140625 L 172.027344 57.140625 L 172.027344 69.4375 L 170.125 69.4375 L 170.125 57.140625 L 165.414062 57.140625 L 165.414062 55.484375 Z M 176.707031 55.484375 " fill-opacity="1" fill-rule="nonzero"/><path fill="#0668b2" d="M 179.660156 55.484375 L 181.5625 55.484375 L 181.5625 61.226562 L 188.738281 61.226562 L 188.738281 55.484375 L 190.636719 55.484375 L 190.636719 69.4375 L 188.738281 69.4375 L 188.738281 62.917969 L 181.5625 62.917969 L 181.5625 69.4375 L 179.660156 69.4375 Z M 179.660156 55.484375 " fill-opacity="1" fill-rule="nonzero"/><path fill="#3b68ab" d="M 112.675781 76.167969 L 113.90625 76.167969 L 113.90625 85.152344 L 112.675781 85.152344 Z M 112.675781 76.167969 " fill-opacity="1" fill-rule="nonzero"/><path fill="#0668b2" d="M 116.648438 76.167969 L 118.09375 76.167969 L 122.5625 83.460938 L 122.5625 76.167969 L 123.722656 76.167969 L 123.722656 85.1875 L 122.347656 85.1875 L 117.8125 77.894531 L 117.8125 85.1875 L 116.648438 85.1875 Z M 116.648438 76.167969 " fill-opacity="1" fill-rule="nonzero"/><path fill="#0668b2" d="M 127.238281 82.261719 C 127.238281 82.753906 127.378906 83.179688 127.589844 83.496094 C 127.980469 84.09375 128.683594 84.375 129.632812 84.375 C 130.582031 84.375 130.476562 84.304688 130.828125 84.199219 C 131.53125 83.953125 131.882812 83.496094 131.882812 82.828125 C 131.882812 82.15625 131.742188 81.980469 131.425781 81.769531 C 131.109375 81.558594 130.652344 81.382812 130.019531 81.242188 L 128.859375 80.957031 C 128.085938 80.78125 127.554688 80.570312 127.238281 80.359375 C 126.675781 79.972656 126.394531 79.410156 126.394531 78.667969 C 126.394531 77.929688 126.675781 77.1875 127.203125 76.660156 C 127.765625 76.132812 128.507812 75.886719 129.527344 75.886719 C 130.546875 75.886719 131.214844 76.097656 131.847656 76.554688 C 132.480469 77.011719 132.796875 77.71875 132.796875 78.738281 L 131.636719 78.738281 C 131.566406 78.246094 131.460938 77.894531 131.25 77.648438 C 130.898438 77.1875 130.300781 76.941406 129.421875 76.941406 C 128.542969 76.941406 128.226562 77.082031 127.945312 77.398438 C 127.625 77.683594 127.484375 78.070312 127.484375 78.457031 C 127.484375 78.84375 127.660156 79.230469 128.015625 79.445312 C 128.261719 79.585938 128.789062 79.726562 129.597656 79.9375 L 130.828125 80.21875 C 131.425781 80.359375 131.882812 80.535156 132.199219 80.78125 C 132.761719 81.207031 133.042969 81.804688 133.042969 82.613281 C 133.042969 83.425781 132.691406 84.339844 131.988281 84.765625 C 131.285156 85.1875 130.476562 85.398438 129.527344 85.398438 C 128.578125 85.398438 127.589844 85.117188 126.957031 84.554688 C 126.324219 83.988281 126.042969 83.214844 126.042969 82.226562 L 127.203125 82.226562 Z M 127.238281 82.261719 " fill-opacity="1" fill-rule="nonzero"/><path fill="#0668b2" d="M 136.878906 76.167969 L 136.878906 81.734375 C 136.878906 82.402344 137.019531 82.933594 137.265625 83.355469 C 137.617188 84.023438 138.25 84.339844 139.132812 84.339844 C 140.011719 84.339844 140.890625 83.988281 141.242188 83.285156 C 141.453125 82.898438 141.558594 82.367188 141.558594 81.734375 L 141.558594 76.167969 L 142.789062 76.167969 L 142.789062 81.207031 C 142.789062 82.296875 142.648438 83.179688 142.332031 83.777344 C 141.769531 84.871094 140.75 85.398438 139.238281 85.398438 C 137.722656 85.398438 136.667969 84.871094 136.140625 83.777344 C 135.824219 83.179688 135.683594 82.332031 135.683594 81.207031 L 135.683594 76.167969 L 136.914062 76.167969 Z M 136.878906 76.167969 " fill-opacity="1" fill-rule="nonzero"/><path fill="#0668b2" d="M 145.5 76.167969 L 149.582031 76.167969 C 150.25 76.167969 150.8125 76.273438 151.234375 76.449219 C 152.078125 76.835938 152.464844 77.539062 152.464844 78.5625 C 152.464844 79.585938 152.359375 79.550781 152.113281 79.902344 C 151.902344 80.253906 151.585938 80.535156 151.164062 80.710938 C 151.515625 80.851562 151.761719 81.027344 151.972656 81.277344 C 152.148438 81.523438 152.253906 81.875 152.253906 82.402344 L 152.253906 83.601562 C 152.324219 83.953125 152.324219 84.199219 152.394531 84.375 C 152.464844 84.660156 152.605469 84.835938 152.78125 84.941406 L 152.78125 85.152344 L 151.304688 85.152344 C 151.269531 85.082031 151.234375 84.976562 151.199219 84.835938 C 151.199219 84.695312 151.164062 84.480469 151.128906 84.128906 L 151.058594 82.613281 C 151.058594 82.015625 150.8125 81.628906 150.425781 81.417969 C 150.214844 81.3125 149.828125 81.242188 149.371094 81.242188 L 146.660156 81.242188 L 146.660156 85.117188 L 145.429688 85.117188 L 145.429688 76.132812 Z M 149.476562 80.289062 C 150.039062 80.289062 150.460938 80.183594 150.777344 79.9375 C 151.09375 79.691406 151.269531 79.300781 151.269531 78.703125 C 151.269531 78.105469 151.058594 77.613281 150.601562 77.398438 C 150.355469 77.257812 150.039062 77.222656 149.617188 77.222656 L 146.730469 77.222656 L 146.730469 80.289062 Z M 149.476562 80.289062 " fill-opacity="1" fill-rule="nonzero"/><path fill="#0668b2" d="M 157.8125 76.167969 L 159.183594 76.167969 L 162.457031 85.152344 L 161.121094 85.152344 L 160.171875 82.4375 L 156.652344 82.4375 L 155.667969 85.152344 L 154.398438 85.152344 L 157.777344 76.167969 Z M 159.820312 81.488281 L 158.445312 77.503906 L 157.003906 81.488281 Z M 159.820312 81.488281 " fill-opacity="1" fill-rule="nonzero"/><path fill="#0668b2" d="M 164.285156 76.167969 L 165.730469 76.167969 L 170.195312 83.460938 L 170.195312 76.167969 L 171.359375 76.167969 L 171.359375 85.1875 L 169.984375 85.1875 L 165.449219 77.894531 L 165.449219 85.1875 L 164.285156 85.1875 Z M 164.285156 76.167969 " fill-opacity="1" fill-rule="nonzero"/><path fill="#0668b2" d="M 180.46875 76.835938 C 181.105469 77.433594 181.421875 78.105469 181.492188 78.878906 L 180.292969 78.878906 C 180.152344 78.28125 179.90625 77.824219 179.519531 77.503906 C 179.132812 77.152344 178.570312 77.011719 177.867188 77.011719 C 177.164062 77.011719 176.285156 77.328125 175.757812 77.964844 C 175.226562 78.597656 174.945312 79.550781 174.945312 80.816406 C 174.945312 82.085938 175.191406 82.71875 175.6875 83.390625 C 176.179688 84.058594 176.882812 84.375 177.832031 84.375 C 178.78125 84.375 179.378906 84.023438 179.835938 83.355469 C 180.082031 83.003906 180.257812 82.507812 180.398438 81.910156 L 181.597656 81.910156 C 181.492188 82.863281 181.140625 83.671875 180.539062 84.304688 C 179.835938 85.082031 178.886719 85.46875 177.691406 85.46875 C 176.496094 85.46875 175.792969 85.152344 175.085938 84.515625 C 174.171875 83.671875 173.714844 82.367188 173.714844 80.640625 C 173.714844 78.914062 174.066406 78.246094 174.769531 77.363281 C 175.507812 76.449219 176.566406 75.992188 177.867188 75.992188 C 179.167969 75.992188 179.871094 76.273438 180.503906 76.90625 " fill-opacity="1" fill-rule="nonzero"/><path fill="#0668b2" d="M 184.023438 76.167969 L 190.53125 76.167969 L 190.53125 77.257812 L 185.183594 77.257812 L 185.183594 80.007812 L 190.144531 80.007812 L 190.144531 81.066406 L 185.183594 81.066406 L 185.183594 84.09375 L 190.636719 84.09375 L 190.636719 85.1875 L 184.023438 85.1875 Z M 184.023438 76.167969 " fill-opacity="1" fill-rule="nonzero"/><path fill="#fbdf00" d="M 2.941406 43.363281 L 108.804688 43.363281 L 108.804688 97.800781 L 2.941406 97.800781 Z M 2.941406 43.363281 " fill-opacity="1" fill-rule="nonzero"/><path fill="#0668b2" d="M 32.496094 62.636719 C 32 62.460938 31.472656 62.320312 30.839844 62.144531 C 30.242188 61.96875 29.539062 61.824219 28.800781 61.683594 C 28.027344 61.542969 27.183594 61.507812 26.300781 61.507812 C 25.210938 61.507812 24.085938 61.683594 23.03125 62.003906 C 21.941406 62.320312 20.953125 62.8125 19.96875 63.445312 C 19.019531 64.117188 18.175781 64.925781 17.4375 65.914062 C 16.699219 66.898438 16.136719 68.0625 15.710938 69.402344 C 15.289062 70.742188 15.078125 72.253906 15.078125 73.945312 C 15.078125 75.742188 15.324219 77.292969 15.816406 78.597656 C 16.3125 79.9375 16.945312 81.027344 17.753906 81.945312 C 18.5625 82.863281 19.441406 83.601562 20.425781 84.128906 C 21.410156 84.695312 22.398438 85.082031 23.417969 85.328125 C 24.4375 85.574219 25.386719 85.679688 26.335938 85.679688 C 27.289062 85.679688 28.203125 85.609375 28.976562 85.503906 C 29.785156 85.363281 30.523438 85.222656 31.191406 85.046875 C 31.859375 84.871094 32.425781 84.695312 32.953125 84.515625 L 32.953125 81.910156 C 32.460938 82.121094 31.929688 82.332031 31.332031 82.578125 C 30.734375 82.789062 30.03125 83.003906 29.257812 83.144531 C 28.484375 83.285156 27.640625 83.390625 26.6875 83.390625 C 25.070312 83.390625 23.734375 83.109375 22.574219 82.542969 C 21.449219 82.015625 20.496094 81.277344 19.792969 80.359375 C 19.089844 79.445312 18.5625 78.386719 18.210938 77.257812 C 17.859375 76.097656 17.71875 74.933594 17.71875 73.699219 C 17.71875 72.46875 17.894531 71.304688 18.246094 70.105469 C 18.597656 68.945312 19.125 67.886719 19.828125 66.96875 C 20.53125 66.019531 21.449219 65.277344 22.539062 64.714844 C 23.628906 64.152344 24.929688 63.871094 26.40625 63.835938 C 27.289062 63.835938 28.097656 63.90625 28.800781 64.082031 C 29.503906 64.222656 30.171875 64.433594 30.804688 64.679688 C 31.402344 64.925781 32 65.136719 32.53125 65.421875 L 32.53125 62.671875 Z M 32.496094 62.636719 " fill-opacity="1" fill-rule="nonzero"/><path fill="#0668b2" d="M 55.609375 81.207031 C 55.433594 81.347656 55.1875 81.558594 54.90625 81.769531 C 54.625 82.015625 54.308594 82.226562 53.957031 82.472656 C 53.605469 82.683594 53.285156 82.898438 52.96875 83.074219 C 52.652344 83.25 52.441406 83.320312 52.230469 83.320312 C 52.089844 83.320312 51.949219 83.285156 51.914062 83.25 C 51.84375 83.179688 51.808594 83.144531 51.773438 83.074219 C 51.773438 83.003906 51.773438 82.863281 51.738281 82.613281 C 51.738281 82.367188 51.738281 82.085938 51.738281 81.804688 L 51.738281 69.085938 C 51.738281 68.203125 51.738281 67.429688 51.667969 66.828125 C 51.597656 66.195312 51.492188 65.632812 51.28125 65.136719 C 51.070312 64.644531 50.753906 64.152344 50.296875 63.660156 C 49.839844 63.164062 49.277344 62.742188 48.609375 62.460938 C 47.9375 62.144531 47.234375 61.933594 46.53125 61.789062 C 45.792969 61.648438 45.125 61.578125 44.457031 61.578125 C 43.578125 61.578125 42.769531 61.683594 42.027344 61.863281 C 41.289062 62.039062 40.585938 62.25 39.953125 62.53125 C 39.320312 62.8125 38.757812 63.058594 38.265625 63.339844 C 37.773438 63.625 37.347656 63.871094 36.996094 64.082031 L 36.996094 66.617188 C 37.84375 66.019531 38.617188 65.527344 39.355469 65.101562 C 40.09375 64.679688 40.832031 64.363281 41.605469 64.152344 C 42.378906 63.941406 43.226562 63.835938 44.140625 63.835938 C 45.40625 63.835938 46.425781 64.046875 47.199219 64.433594 C 47.9375 64.820312 48.503906 65.386719 48.820312 66.054688 C 49.136719 66.757812 49.277344 67.535156 49.277344 68.449219 L 49.277344 71.410156 C 48.75 71.410156 48.007812 71.480469 47.164062 71.550781 C 46.320312 71.65625 45.371094 71.796875 44.351562 72.007812 C 43.332031 72.21875 42.308594 72.503906 41.289062 72.890625 C 40.269531 73.277344 39.355469 73.769531 38.511719 74.40625 C 37.667969 75.039062 36.996094 75.777344 36.46875 76.695312 C 35.941406 77.613281 35.695312 78.703125 35.695312 79.972656 C 35.695312 80.816406 35.871094 81.59375 36.1875 82.296875 C 36.539062 83.003906 36.960938 83.636719 37.5625 84.164062 C 38.125 84.695312 38.792969 85.117188 39.566406 85.398438 C 40.304688 85.679688 41.113281 85.820312 41.992188 85.855469 C 42.910156 85.855469 43.71875 85.75 44.457031 85.539062 C 45.230469 85.328125 45.898438 85.082031 46.53125 84.765625 C 47.128906 84.445312 47.691406 84.128906 48.152344 83.8125 C 48.609375 83.496094 48.996094 83.214844 49.277344 82.96875 C 49.3125 83.566406 49.382812 84.058594 49.453125 84.515625 C 49.523438 84.941406 49.699219 85.292969 49.910156 85.503906 C 50.121094 85.75 50.472656 85.855469 50.964844 85.855469 C 51.492188 85.855469 52.125 85.644531 52.863281 85.222656 C 53.605469 84.800781 54.554688 84.199219 55.609375 83.425781 Z M 49.242188 80.605469 C 48.890625 80.921875 48.503906 81.242188 48.082031 81.628906 C 47.621094 81.980469 47.128906 82.296875 46.601562 82.613281 C 46.074219 82.933594 45.476562 83.179688 44.84375 83.390625 C 44.210938 83.601562 43.507812 83.671875 42.769531 83.671875 C 42.308594 83.671875 41.816406 83.601562 41.289062 83.460938 C 40.761719 83.320312 40.269531 83.109375 39.777344 82.789062 C 39.320312 82.472656 38.933594 82.085938 38.617188 81.59375 C 38.300781 81.101562 38.160156 80.5 38.160156 79.832031 C 38.160156 79.125 38.300781 78.492188 38.582031 77.929688 C 38.863281 77.363281 39.214844 76.835938 39.671875 76.378906 C 40.128906 75.921875 40.621094 75.496094 41.183594 75.179688 C 41.746094 74.828125 42.308594 74.546875 42.910156 74.300781 C 43.648438 74.015625 44.421875 73.804688 45.195312 73.664062 C 46.003906 73.523438 46.742188 73.453125 47.445312 73.382812 C 48.152344 73.347656 48.785156 73.3125 49.277344 73.3125 L 49.277344 80.605469 Z M 49.242188 80.605469 " fill-opacity="1" fill-rule="nonzero"/><path fill="#0668b2" d="M 75.101562 64.222656 C 74.785156 63.941406 74.464844 63.660156 74.078125 63.375 C 73.691406 63.058594 73.269531 62.777344 72.8125 62.460938 C 72.355469 62.179688 71.863281 61.933594 71.371094 61.753906 C 70.878906 61.578125 70.351562 61.472656 69.789062 61.472656 C 69.011719 61.472656 68.238281 61.648438 67.535156 62.003906 C 66.796875 62.355469 66.128906 62.8125 65.496094 63.339844 C 64.863281 63.871094 64.265625 64.46875 63.734375 65.066406 C 63.207031 65.667969 62.75 66.230469 62.363281 66.757812 C 62.011719 67.289062 61.695312 67.710938 61.519531 68.027344 L 61.519531 61.898438 L 59.023438 61.898438 L 59.023438 85.1875 L 61.519531 85.1875 L 61.519531 70.5625 C 62.011719 69.71875 62.574219 68.910156 63.171875 68.132812 C 63.769531 67.359375 64.371094 66.652344 65.039062 66.019531 C 65.707031 65.386719 66.339844 64.890625 67.007812 64.539062 C 67.675781 64.1875 68.34375 63.976562 69.046875 63.976562 C 69.613281 63.976562 70.175781 64.117188 70.738281 64.398438 C 71.300781 64.679688 71.828125 64.996094 72.320312 65.386719 C 72.8125 65.773438 73.269531 66.160156 73.65625 66.511719 L 75.101562 64.1875 Z M 75.101562 64.222656 " fill-opacity="1" fill-rule="nonzero"/><path fill="#0668b2" d="M 96.632812 72.679688 C 96.632812 71.867188 96.5625 71.023438 96.421875 70.175781 C 96.316406 69.332031 96.035156 68.449219 95.644531 67.535156 C 95.363281 66.828125 94.941406 66.125 94.414062 65.421875 C 93.886719 64.714844 93.253906 64.046875 92.480469 63.445312 C 91.707031 62.847656 90.828125 62.390625 89.804688 62.003906 C 88.785156 61.648438 87.625 61.472656 86.324219 61.4375 C 84.632812 61.4375 83.15625 61.753906 81.820312 62.425781 C 80.519531 63.058594 79.390625 63.941406 78.476562 65.03125 C 77.5625 66.160156 76.859375 67.394531 76.367188 68.800781 C 75.875 70.210938 75.628906 71.691406 75.628906 73.242188 C 75.628906 74.792969 75.769531 75.707031 76.121094 76.90625 C 76.4375 78.105469 76.894531 79.230469 77.527344 80.289062 C 78.160156 81.347656 78.933594 82.261719 79.847656 83.074219 C 80.800781 83.882812 81.855469 84.515625 83.085938 84.941406 C 84.316406 85.398438 85.691406 85.609375 87.203125 85.644531 C 88.503906 85.644531 89.664062 85.503906 90.757812 85.222656 C 91.847656 84.941406 92.832031 84.550781 93.710938 84.09375 C 94.589844 83.636719 95.433594 83.109375 96.140625 82.542969 L 96.140625 79.761719 C 95.785156 80.078125 95.328125 80.429688 94.835938 80.816406 C 94.308594 81.207031 93.675781 81.628906 92.972656 81.980469 C 92.234375 82.367188 91.425781 82.683594 90.507812 82.933594 C 89.59375 83.179688 88.574219 83.320312 87.484375 83.320312 C 86.570312 83.320312 85.691406 83.179688 84.808594 82.933594 C 83.929688 82.648438 83.085938 82.261719 82.277344 81.699219 C 81.503906 81.136719 80.800781 80.464844 80.167969 79.621094 C 79.566406 78.773438 79.109375 77.789062 78.792969 76.625 C 78.476562 75.460938 78.335938 74.160156 78.371094 72.679688 Z M 78.652344 70.707031 C 78.863281 69.507812 79.25 68.449219 79.777344 67.570312 C 80.308594 66.6875 80.941406 65.949219 81.644531 65.386719 C 82.347656 64.820312 83.121094 64.398438 83.929688 64.117188 C 84.738281 63.835938 85.515625 63.695312 86.324219 63.695312 C 87.625 63.695312 88.785156 64.011719 89.839844 64.574219 C 90.863281 65.171875 91.707031 65.949219 92.304688 66.933594 C 92.761719 67.675781 93.078125 68.34375 93.253906 68.945312 C 93.464844 69.578125 93.605469 70.140625 93.675781 70.671875 L 78.652344 70.671875 Z M 78.652344 70.707031 " fill-opacity="1" fill-rule="nonzero"/><path fill="#0668b2" d="M 75.664062 55.484375 L 96.632812 55.484375 L 96.632812 57.878906 L 75.664062 57.878906 Z M 75.664062 55.484375 " fill-opacity="1" fill-rule="nonzero"/><path fill="#0668b2" d="M 196.089844 51.398438 C 196.089844 52.628906 195.105469 53.617188 193.839844 53.617188 C 192.574219 53.617188 191.585938 52.628906 191.585938 51.398438 C 191.585938 50.164062 192.574219 49.210938 193.875 49.210938 C 195.175781 49.210938 196.089844 50.164062 196.089844 51.398438 Z M 192.152344 51.398438 C 192.152344 52.382812 192.890625 53.160156 193.875 53.160156 C 194.824219 53.160156 195.527344 52.382812 195.527344 51.433594 C 195.527344 50.480469 194.789062 49.671875 193.839844 49.671875 C 192.890625 49.671875 192.152344 50.445312 192.152344 51.433594 Z M 193.488281 52.558594 L 192.996094 52.558594 L 192.996094 50.375 C 193.207031 50.375 193.488281 50.304688 193.839844 50.304688 C 194.191406 50.304688 194.4375 50.375 194.578125 50.480469 C 194.71875 50.585938 194.789062 50.726562 194.789062 50.9375 C 194.789062 51.148438 194.578125 51.398438 194.332031 51.46875 C 194.542969 51.574219 194.648438 51.75 194.71875 52.03125 C 194.789062 52.347656 194.824219 52.488281 194.894531 52.558594 L 194.367188 52.558594 C 194.296875 52.488281 194.261719 52.277344 194.191406 52.03125 C 194.15625 51.820312 194.015625 51.714844 193.734375 51.714844 L 193.488281 51.714844 L 193.488281 52.59375 Z M 193.523438 51.324219 L 193.769531 51.324219 C 194.050781 51.324219 194.261719 51.21875 194.261719 51.007812 C 194.261719 50.796875 194.121094 50.691406 193.804688 50.691406 C 193.488281 50.691406 193.59375 50.691406 193.523438 50.691406 Z M 193.523438 51.324219 " fill-opacity="1" fill-rule="nonzero"/></svg>